<svg width="22" height="23" viewBox="0 0 22 23" fill="none" xmlns="http://www.w3.org/2000/svg">
<path d="M16 1.02539H6C3.23858 1.02539 1 3.26397 1 6.02539V16.0254C1 18.7868 3.23858 21.0254 6 21.0254H16C18.7614 21.0254 21 18.7868 21 16.0254V6.02539C21 3.26397 18.7614 1.02539 16 1.02539Z" stroke="#383638" stroke-width="2" stroke-linecap="round" stroke-linejoin="round"/>
<path d="M15 10.3954C15.1234 11.2277 14.9812 12.0777 14.5937 12.8245C14.2062 13.5713 13.5931 14.1769 12.8416 14.5551C12.0901 14.9334 11.2384 15.065 10.4077 14.9314C9.57708 14.7977 8.80971 14.4055 8.21479 13.8106C7.61987 13.2157 7.22768 12.4483 7.09402 11.6177C6.96035 10.787 7.09202 9.93534 7.47028 9.18382C7.84854 8.4323 8.45414 7.81919 9.20094 7.43169C9.94773 7.04419 10.7977 6.90204 11.63 7.02545C12.4789 7.15133 13.2648 7.54691 13.8716 8.15375C14.4785 8.7606 14.8741 9.54653 15 10.3954Z" stroke="#383638" stroke-width="2" stroke-linecap="round" stroke-linejoin="round"/>
<path d="M16.5 5.52539H16.51" stroke="#383638" stroke-width="2" stroke-linecap="round" stroke-linejoin="round"/>
</svg>
