<svg width="22" height="22" viewBox="0 0 22 22" fill="none" xmlns="http://www.w3.org/2000/svg">
<path d="M15 7.02539C16.5913 7.02539 18.1174 7.65753 19.2426 8.78275C20.3679 9.90797 21 11.4341 21 13.0254V20.0254H17V13.0254C17 12.495 16.7893 11.9863 16.4142 11.6112C16.0391 11.2361 15.5304 11.0254 15 11.0254C14.4696 11.0254 13.9609 11.2361 13.5858 11.6112C13.2107 11.9863 13 12.495 13 13.0254V20.0254H9V13.0254C9 11.4341 9.63214 9.90797 10.7574 8.78275C11.8826 7.65753 13.4087 7.02539 15 7.02539V7.02539Z" stroke="#383638" stroke-width="2" stroke-linecap="round" stroke-linejoin="round"/>
<path d="M5 8.02539H1V20.0254H5V8.02539Z" stroke="#383638" stroke-width="2" stroke-linecap="round" stroke-linejoin="round"/>
<path d="M3 5.02539C4.10457 5.02539 5 4.12996 5 3.02539C5 1.92082 4.10457 1.02539 3 1.02539C1.89543 1.02539 1 1.92082 1 3.02539C1 4.12996 1.89543 5.02539 3 5.02539Z" stroke="#383638" stroke-width="2" stroke-linecap="round" stroke-linejoin="round"/>
</svg>
